PathFileType	4	(X/Y/Z)	C:\Users\dbl\Desktop\LZH\BX\Trimmed_bx_n_10_1801.trc
DataRate	CameraRate	NumFrames	NumMarkers	Units	OrigDataRate	OrigDataStartFrame	OrigNumFrames
50.00	50.00	       8	43	mm	50.00	148	       394
Frame#	Time	Top.Head			R.Acromium			L.Acromium			Sternum			R.ASIS			L.ASIS			V.Sacral			R.Thigh.Upper			R.Thigh.Front			R.Thigh.Rear			R.Knee.Lat			R.Knee.Med			R.Shank.Upper			R.Shank.Front			R.Shank.Rear			R.Ankle.Lat			R.Midfoot.Lat			R.Toe.Lat			R.Toe.Tip			R.Toe.Med			R.Ankle.Med			R.Midfoot.Sup			R.Heel			L.Thigh.Upper			L.Thigh.Front			L.Thigh.Rear			L.Knee.Lat			L.Knee.Med			L.Shank.Upper			L.Shank.Front			L.Shank.Rear			L.Ankle.Lat			L.Midfoot.Lat			L.Toe.Lat			L.Toe.Tip			L.Toe.Med			L.Ankle.Med			L.Midfoot.Sup			L.Heel			origin1 front left			origin2 front right			origin 3 back right			origin 4 back leftt			
		X1	Y1	Z1	X2	Y2	Z2	X3	Y3	Z3	X4	Y4	Z4	X5	Y5	Z5	X6	Y6	Z6	X7	Y7	Z7	X8	Y8	Z8	X9	Y9	Z9	X10	Y10	Z10	X11	Y11	Z11	X12	Y12	Z12	X13	Y13	Z13	X14	Y14	Z14	X15	Y15	Z15	X16	Y16	Z16	X17	Y17	Z17	X18	Y18	Z18	X19	Y19	Z19	X20	Y20	Z20	X21	Y21	Z21	X22	Y22	Z22	X23	Y23	Z23	X24	Y24	Z24	X25	Y25	Z25	X26	Y26	Z26	X27	Y27	Z27	X28	Y28	Z28	X29	Y29	Z29	X30	Y30	Z30	X31	Y31	Z31	X32	Y32	Z32	X33	Y33	Z33	X34	Y34	Z34	X35	Y35	Z35	X36	Y36	Z36	X37	Y37	Z37	X38	Y38	Z38	X39	Y39	Z39	X40	Y40	Z40	X41	Y41	Z41	X42	Y42	Z42	X43	Y43	Z43	

148	2.940	-541.43842	262.05072	1828.59082	-617.58752	72.30027	1533.92480	-640.02045	428.79248	1532.93127	-535.28052	255.83249	1348.07776	-533.66144	130.04555	1029.18054	-518.58911	358.92703	1036.82678	-727.61237	252.42715	1045.56506	-589.08038	79.89106	864.55505	-517.90344	149.14253	848.22424	-605.94232	92.03532	737.85010	-652.85376	116.30409	603.74097	-633.59760	224.80690	562.57996	-682.61798	116.88603	540.88959	-602.85663	161.61032	534.64349	-721.93109	116.99987	475.38736	-691.83356	142.25665	213.92203	-615.19012	85.12823	165.24127	-566.55231	66.10809	163.00177	-489.46619	111.17623	158.82661	-537.60443	160.96339	164.59145	-646.31946	220.88316	219.40016	-602.20764	197.84096	170.56378	-729.90332	207.75198	171.08334	-601.86377	439.24008	874.80035	-517.15021	368.49017	842.48254	-625.48077	427.78696	754.78223	-656.29810	407.57391	628.33386	-615.16193	304.59540	574.84857	-661.90143	406.42142	563.06897	-602.55469	359.23932	545.26611	-711.85889	409.82565	509.74307	-682.52887	406.73560	214.90643	-588.77161	458.48303	164.73674	-550.02057	466.54559	161.33913	-488.84253	419.66669	167.20673	-528.09509	377.08005	176.45018	-647.57703	316.93738	207.65616	-598.96521	337.88849	168.26692	-737.69611	337.56625	163.87650	-443.61060	448.75302	147.23686	-450.55133	75.05813	144.10759	-806.34186	82.73311	142.37286	-799.50360	456.93317	145.11253	
149	2.960	-539.86469	262.07782	1828.36255	-616.81201	72.27367	1533.94385	-639.60260	428.74387	1532.99243	-535.17615	255.82892	1347.92249	-533.88940	129.90404	1029.17810	-518.88098	358.94571	1036.81885	-728.02600	252.31294	1045.69458	-589.54364	79.78859	864.57208	-518.15338	149.02026	848.21674	-606.27167	91.86232	737.90356	-653.06152	116.12728	603.86169	-633.63397	224.77281	562.55170	-682.76605	116.92789	540.83118	-602.98993	161.52213	534.64117	-722.13513	116.96324	475.37976	-691.86981	142.25954	213.92654	-615.20886	85.12254	165.22145	-566.56744	66.13358	162.94321	-489.45178	111.21281	158.83992	-537.62451	160.95718	164.56616	-646.32745	220.89854	219.43617	-602.21661	197.84148	170.60725	-729.87738	207.78152	171.04620	-602.18652	439.22784	874.86566	-517.37543	368.52802	842.46814	-625.80475	427.85956	754.92389	-656.50256	407.58600	628.42877	-615.26221	304.60568	574.84479	-662.07330	406.37994	563.00519	-602.71716	359.27524	545.24341	-712.02997	409.84088	509.69714	-682.50696	406.70209	214.84555	-588.74481	458.52515	164.71234	-550.00604	466.55035	161.34589	-488.85693	419.64526	167.21535	-528.12750	377.08670	176.43581	-647.59790	316.95822	207.63760	-599.02252	337.94107	168.20522	-737.68884	337.59470	163.84608	-443.60556	448.77597	147.27335	-450.54834	75.06146	144.10818	-806.36230	82.74780	142.35432	-799.48822	456.95633	145.16943	
150	2.980	-538.55310	262.09512	1828.16101	-616.15186	72.25145	1533.94434	-639.25262	428.66232	1533.04688	-535.03851	255.84647	1347.75293	-534.07062	129.84245	1029.13586	-519.19659	358.92722	1036.83655	-728.33167	252.22214	1045.83752	-589.95911	79.68451	864.66223	-518.34393	148.90013	848.24323	-606.53174	91.68206	737.99957	-653.18091	116.03145	603.89636	-633.66364	224.74422	562.52435	-682.85150	116.86909	540.90540	-603.10602	161.48045	534.65955	-722.27344	116.93343	475.37125	-691.89911	142.29480	213.91112	-615.22131	85.11786	165.19464	-566.58496	66.14304	162.88910	-489.43433	111.24490	158.83862	-537.63647	160.96623	164.56850	-646.36188	220.87938	219.42429	-602.21497	197.82837	170.62344	-729.83728	207.82736	170.99648	-602.49982	439.20880	874.93079	-517.62256	368.60117	842.43469	-626.11035	427.85092	754.90881	-656.65521	407.59073	628.45490	-615.36121	304.63519	574.83936	-662.18256	406.37183	562.94940	-602.88245	359.27783	545.19806	-712.14282	409.84366	509.65607	-682.48944	406.71515	214.79805	-588.73260	458.53992	164.68990	-550.01721	466.54880	161.31917	-488.87079	419.64313	167.20540	-528.13763	377.11087	176.42241	-647.61237	316.95422	207.66762	-599.07770	337.95514	168.14302	-737.70111	337.61597	163.83665	-443.60519	448.77130	147.28786	-450.53787	75.06976	144.11644	-806.38568	82.76826	142.32555	-799.46198	456.94885	145.24710	
151	3.000	-537.58197	262.05139	1827.98120	-615.62671	72.23960	1533.93726	-638.98541	428.55917	1533.08325	-534.86005	255.88638	1347.60571	-534.21198	129.84511	1029.08398	-519.47675	358.89206	1036.87671	-728.51447	252.15536	1045.96960	-590.24139	79.60406	864.77136	-518.48218	148.84236	848.28070	-606.71271	91.55919	738.08002	-653.23657	116.00220	603.86194	-633.68817	224.71819	562.49573	-682.90918	116.71190	541.08673	-603.21497	161.47084	534.67273	-722.35114	116.91927	475.34521	-691.90985	142.34508	213.87088	-615.22998	85.12138	165.16788	-566.59320	66.13367	162.86475	-489.41006	111.25855	158.82683	-537.63110	160.98047	164.59525	-646.43976	220.82526	219.36346	-602.21234	197.80777	170.59955	-729.81317	207.85553	170.93730	-602.76093	439.20782	874.98505	-517.87109	368.67874	842.40063	-626.35767	427.79700	754.80457	-656.76013	407.58466	628.41223	-615.45862	304.66852	574.83142	-662.23712	406.39301	562.91888	-603.05109	359.25562	545.15570	-712.21173	409.84854	509.62860	-682.48639	406.74884	214.76816	-588.74738	458.53311	164.66730	-550.04999	466.54361	161.27826	-488.87729	419.64972	167.19275	-528.11438	377.15247	176.40959	-647.61499	316.93335	207.71992	-599.12518	337.95126	168.12305	-737.73413	337.62573	163.83615	-443.60770	448.76724	147.28258	-450.52487	75.07489	144.12659	-806.40100	82.79178	142.30452	-799.41882	456.93478	145.29556	
152	3.020	-536.97882	261.93588	1827.83118	-615.22388	72.22023	1533.93103	-638.81207	428.46146	1533.11035	-534.65015	255.93814	1347.53076	-534.30035	129.88055	1029.04858	-519.67023	358.86942	1036.92090	-728.60187	252.11607	1046.05542	-590.36951	79.57400	864.83295	-518.58118	148.87227	848.29260	-606.80835	91.50281	738.12811	-653.26202	116.00085	603.80536	-633.71490	224.69083	562.45935	-682.94879	116.51658	541.28784	-603.31927	161.49600	534.66174	-722.40088	116.92187	475.29794	-691.88214	142.39117	213.80626	-615.23071	85.14204	165.14680	-566.59424	66.11851	162.87756	-489.38751	111.25764	158.81174	-537.62054	160.99219	164.61780	-646.47424	220.80634	219.33328	-602.20538	197.78658	170.56694	-729.83148	207.84129	170.88843	-602.94269	439.22287	875.02460	-518.06384	368.73318	842.38098	-626.52020	427.77002	754.71454	-656.82983	407.57578	628.34473	-615.57874	304.67737	574.83954	-662.26447	406.43280	562.92426	-603.20667	359.24765	545.11969	-712.27496	409.86942	509.61334	-682.49438	406.77847	214.75142	-588.77863	458.52164	164.65691	-550.08838	466.53622	161.24989	-488.87350	419.65146	167.18678	-528.07471	377.20157	176.39351	-647.61218	316.91672	207.75464	-599.15875	337.95145	168.15552	-737.77112	337.62741	163.83530	-443.60864	448.77740	147.26057	-450.51816	75.06702	144.13507	-806.40723	82.80799	142.29994	-799.38245	456.92938	145.28810	
153	3.040	-536.67865	261.78070	1827.72546	-614.91107	72.18069	1533.93555	-638.72400	428.38925	1533.14624	-534.43658	256.00067	1347.54626	-534.32880	129.92412	1029.04321	-519.76611	358.88852	1036.95215	-728.63159	252.10362	1046.08264	-590.37726	79.60936	864.83356	-518.64417	148.97006	848.26282	-606.83069	91.50009	738.13696	-653.28052	116.00851	603.76532	-633.75159	224.66650	562.41388	-682.96906	116.36382	541.42554	-603.41223	161.56384	534.63416	-722.45203	116.93759	475.23679	-691.81201	142.41864	213.73827	-615.22668	85.16766	165.13574	-566.59662	66.10906	162.91815	-489.39243	111.25109	158.80193	-537.62830	161.00172	164.61072	-646.35303	220.89299	219.42505	-602.18982	197.77353	170.54662	-729.88306	207.79607	170.86978	-603.05902	439.22934	875.04907	-518.16888	368.75940	842.36444	-626.60938	427.78320	754.68011	-656.88782	407.57755	628.29272	-615.74493	304.66568	574.86273	-662.29761	406.47705	562.96161	-603.34698	359.27521	545.10834	-712.36414	409.90527	509.60510	-682.49963	406.79834	214.75189	-588.80115	458.51974	164.66299	-550.12292	466.52863	161.23982	-488.86203	419.64581	167.18584	-528.04437	377.23303	176.38472	-647.61212	316.91666	207.75461	-599.18201	337.95853	168.20590	-737.79492	337.62808	163.84082	-443.60464	448.78934	147.22946	-450.52078	75.04856	144.14386	-806.40387	82.80769	142.30800	-799.38690	456.93176	145.25201	
154	3.060	-536.58533	261.62485	1827.67859	-614.65369	72.13006	1533.95508	-638.70050	428.34174	1533.19885	-534.25372	256.08392	1347.62878	-534.31384	129.97165	1029.06396	-519.79016	358.96613	1036.95044	-728.63513	252.10545	1046.07861	-590.30865	79.69479	864.80139	-518.66937	149.09256	848.19897	-606.79895	91.54987	738.09167	-653.29987	116.02538	603.75226	-633.80029	224.66414	562.37079	-682.97369	116.29012	541.47968	-603.48462	161.65770	534.60431	-722.50165	116.95174	475.17935	-691.72858	142.42274	213.68970	-615.22986	85.17704	165.13646	-566.60315	66.10494	162.96991	-489.43100	111.23846	158.79948	-537.65546	161.01257	164.59097	-646.10083	221.05765	219.61562	-602.17151	197.77554	170.53050	-729.93530	207.75801	170.87563	-603.13800	439.21548	875.05243	-518.21509	368.78571	842.33209	-626.66882	427.79288	754.66541	-656.95404	407.59842	628.25580	-615.93060	304.67325	574.88123	-662.34814	406.51245	563.01294	-603.48041	359.31519	545.13293	-712.47443	409.94415	509.60034	-682.49512	406.81107	214.77007	-588.80475	458.53131	164.67563	-550.14374	466.52521	161.24016	-488.84335	419.63840	167.17981	-528.03662	377.22845	176.39371	-647.61835	316.93494	207.72098	-599.20288	337.96988	168.22594	-737.80414	337.63736	163.85594	-443.59357	448.78659	147.19922	-450.52716	75.03707	144.15192	-806.39447	82.79205	142.31613	-799.42627	456.93842	145.23018	
155	3.080	-536.64270	261.50122	1827.69800	-614.43695	72.08202	1533.98535	-638.73163	428.30234	1533.26453	-534.12109	256.18201	1347.74146	-534.28125	130.04393	1029.08850	-519.77551	359.08893	1036.90259	-728.63129	252.10661	1046.08569	-590.20349	79.78661	864.75665	-518.66748	149.19754	848.12170	-606.71729	91.64923	737.99579	-653.32233	116.05029	603.74957	-633.86584	224.69724	562.33502	-682.97174	116.27588	541.48285	-603.53558	161.73393	534.57416	-722.53241	116.94915	475.14969	-691.67981	142.40033	213.68109	-615.24030	85.16890	165.14726	-566.60602	66.10214	163.01306	-489.46817	111.22031	158.80342	-537.67505	161.02441	164.59621	-645.86798	221.20116	219.78224	-602.16193	197.78801	170.51279	-729.96509	207.75285	170.87955	-603.19305	439.19644	875.03296	-518.26703	368.85492	842.27722	-626.73505	427.76355	754.62939	-657.02771	407.63144	628.21283	-616.07385	304.72784	574.87891	-662.39746	406.53653	563.06000	-603.59619	359.33575	545.16260	-712.57477	409.97427	509.59671	-682.48993	406.81360	214.78969	-588.80194	458.54990	164.69160	-550.14294	466.52844	161.24367	-488.81909	419.63422	167.16490	-528.04852	377.19830	176.40887	-647.62823	316.96173	207.67258	-599.21954	337.98297	168.20811	-737.80646	337.66132	163.86940	-443.57654	448.77524	147.17729	-450.53134	75.04459	144.15514	-806.38947	82.77142	142.31668	-799.46820	456.94385	145.21848	
